<?xml version="1.0" standalone="no"?>
<!DOCTYPE svg PUBLIC "-//W3C//DTD SVG 20010904//EN"
 "http://www.w3.org/TR/2001/REC-SVG-20010904/DTD/svg10.dtd">
<svg version="1.0" xmlns="http://www.w3.org/2000/svg"
 width="1024.000000pt" height="1024.000000pt" viewBox="0 0 1024.000000 1024.000000"
 preserveAspectRatio="xMidYMid meet">
<metadata>
Created by potrace 1.11, written by Peter Selinger 2001-2013
</metadata>
<g transform="translate(0.000000,1024.000000) scale(0.100000,-0.100000)"
fill="#000000" stroke="none">
<path d="M0 5120 l0 -5120 5120 0 5120 0 0 5120 0 5120 -5120 0 -5120 0 0
-5120z m8580 3688 c84 -41 164 -114 210 -193 65 -110 61 92 58 -2985 l-3
-2795 -27 -80 c-80 -235 -304 -435 -628 -560 -575 -223 -1127 -232 -1712 -29
-245 85 -385 168 -529 313 -78 78 -103 112 -138 181 -200 407 33 834 568 1041
321 124 607 179 924 179 306 0 538 -41 820 -143 l97 -36 0 1294 c0 881 -3
1295 -10 1295 -8 0 -3434 -1054 -3677 -1131 l-33 -11 0 -1757 c0 -1717 0
-1760 -20 -1835 -32 -128 -81 -208 -194 -322 -152 -153 -265 -218 -540 -313
-539 -185 -1017 -189 -1561 -14 -257 83 -421 172 -560 305 -126 119 -194 233
-220 373 -29 148 -11 279 56 415 35 69 60 103 138 181 163 164 332 256 652
352 319 97 656 129 973 92 186 -22 312 -50 476 -106 80 -27 153 -52 163 -56
16 -5 17 112 17 2375 0 2308 1 2382 19 2441 37 118 136 234 244 285 37 17
3553 1106 4117 1275 19 6 82 9 140 8 98 -2 110 -5 180 -39z"/>
</g>
</svg>
